<svg xmlns="http://www.w3.org/2000/svg" width="183.237" height="60.287" viewBox="28.346 21.15 183.237 60.287" enable-background="new 28.346 21.15 183.237 60.287"><g><path fill="#004588" d="M28.346 42.466c.09-7.782 6.487-14.124 14.264-14.124 7.78 0 14.18 6.328 14.267 14.11l.004.014v13.236h-7.34V43.05c-.044-3.99-3.152-7.23-6.93-7.23-3.772 0-6.88 3.25-6.925 7.245l-.003 12.638h-7.336V42.466zM103.536 55.673v-.94c-1.143.693-2.19 1.206-3.31 1.206-2.274 0-3.62-2.077-3.62-5.495s1.5-5.607 3.8-5.607c1.072 0 2.256.625 3.31 1.23v-.983h2.52v10.59l-2.7-.002zm0-8.133c-1.097-.38-1.48-.446-2.034-.446-1.36 0-2.057 1.07-2.057 3.284 0 2.254.648 3.307 1.99 3.307.514 0 1.004-.09 2.1-.472V47.54zM150.258 55.673v-.94c-1.14.693-2.19 1.206-3.305 1.206-2.28 0-3.62-2.077-3.62-5.495s1.495-5.607 3.796-5.607c1.073 0 2.257.625 3.306 1.23v-.983h2.525v10.59l-2.702-.002zm0-8.133c-1.094-.38-1.475-.446-2.03-.446-1.366 0-2.058 1.07-2.058 3.284 0 2.254.646 3.307 1.988 3.307.512 0 1.006-.09 2.1-.472V47.54zM91.228 55.694l-5.652-12.086.11 12.086H83.32v-14.9h3.752l5.654 12.176-.114-12.176h2.368v14.9h-3.752zM112.224 55.938c-1.186 0-2.078-.443-2.5-1.25-.27-.534-.358-1.183-.358-2.814V46.87h-1.787v-1.474l1.786-.27v-2.95h2.702v2.905h2.86v1.788h-2.86v4.512c0 1.742 0 1.81.18 2.1.178.313.516.446 1.052.446.467 0 .915-.065 1.742-.267l.334 1.628c-1.298.452-2.28.65-3.152.65zM117.986 43.25c-.85 0-1.54-.69-1.54-1.54 0-.85.69-1.54 1.54-1.54.852 0 1.52.69 1.52 1.54 0 .85-.67 1.54-1.52 1.54zm-1.36 12.444v-10.61h2.7v10.61h-2.7zM126.207 55.895c-3.217 0-5.095-2.01-5.095-5.496 0-3.44 1.898-5.564 5.095-5.564 3.262 0 5.094 1.988 5.094 5.542 0 3.53-1.855 5.517-5.093 5.517zm0-9.137c-1.54 0-2.256 1.14-2.256 3.574 0 2.612.693 3.663 2.277 3.663 1.566 0 2.236-1.05 2.236-3.597.002-2.57-.65-3.64-2.256-3.64zM139.215 55.694V49.26c0-1.363-.11-2.167-1.475-2.167-.67 0-1.476.135-2.32.427v8.175h-2.707V45.083h2.526v.938c1.562-.824 2.745-1.185 3.815-1.185 1.072 0 1.926.425 2.37 1.14.4.628.49 1.186.49 2.884v6.835h-2.7zM157.783 39.833v15.86h-2.7v-15.86"/><path fill="#004588" d="M162.012 50.8v.315c0 1.92.805 2.726 2.348 2.726.914 0 1.83-.135 3.51-.67l.468 1.54c-2.19.94-3.416 1.23-4.69 1.23-2.66 0-4.445-1.92-4.445-5.272 0-3.438 1.74-5.83 4.8-5.83 2.997 0 4.517 1.74 4.517 5.518v.446h-6.508zm2.19-4.197c-1.274 0-1.967.96-2.145 2.77l4-.202c-.067-1.743-.625-2.567-1.854-2.567z"/><g fill="#B1B3B4"><path d="M189.162 55.64V54.54c-1.275.736-2.545 1.186-3.51 1.186-2.275 0-3.593-2.06-3.593-5.476 0-3.308 1.562-5.542 3.84-5.542 1.14 0 2.303.625 3.31 1.163v-.75h1.605v10.52h-1.653zm0-8.7c-1.584-.578-2.076-.713-2.838-.713-1.584 0-2.478 1.362-2.478 3.888 0 2.838.78 4.11 2.367 4.11.688 0 1.408-.16 2.947-.76l.002-6.524zM178.39 55.063c-.915.443-1.786.578-3.907.578h-3.375V40.743h2.77c2.525 0 3.397.09 4.27.47 1.206.516 1.854 1.63 1.854 3.106 0 2.01-.87 3.014-2.95 3.415 2.368.27 3.485 1.474 3.485 3.775-.002 1.61-.76 2.883-2.146 3.555zm-1.117-12.578c-.602-.357-.98-.403-2.815-.403h-1.563v5.07h1.1c3.234 0 4.218-.624 4.218-2.703-.002-.893-.336-1.588-.94-1.965zm.135 6.364c-.515-.268-1.16-.357-2.48-.357h-2.034v5.81h1.1c1.872 0 2.52-.09 3.19-.4.895-.427 1.432-1.408 1.432-2.615 0-1.142-.446-2.035-1.208-2.44zM199.307 55.64v-6.453c0-1.565.09-2.794-1.766-2.794-.893 0-1.987.2-3.083.604v8.644h-1.65V45.12h1.61v.85c1.52-.714 2.702-1.096 3.64-1.096 1.07 0 1.875.357 2.367 1.026.45.605.537 1.098.537 2.75v6.99h-1.653zM209.482 55.64l-4.846-5.36v5.36h-1.654V39.78h1.654v9.942l4.713-4.603h1.94l-4.98 4.78 5.273 5.738h-2.102v.003z"/></g><path d="M173.895 65.26h-1.02l-1.985-5.714h.957l1.6 4.96 1.587-4.96h.83l-1.97 5.714zM179.432 65.26l-.508-1.447h-2.354l-.493 1.447h-.808l2.014-5.714h1.018l2.072 5.714h-.942zm-1.705-4.985l-.95 2.912h1.928l-.978-2.912zM183.98 65.26l-2.36-4.82.02 4.82h-.743v-5.714h1.215l2.363 4.865-.024-4.864h.744v5.714h-1.215zM191.19 65.062c-.347.146-.65.197-1.562.197h-1.353v-5.715h1.275c.96 0 1.285.036 1.617.183.465.192.703.625.703 1.197 0 .77-.343 1.164-1.13 1.312.892.096 1.326.556 1.326 1.43.004.65-.312 1.148-.877 1.395zm-.508-4.735c-.203-.13-.375-.137-.986-.137h-.547v1.755h.403c1.113 0 1.447-.214 1.447-.936 0-.306-.102-.555-.318-.683zm.037 2.372c-.19-.094-.413-.13-.91-.13h-.66v2.045h.403c.625 0 .883-.035 1.113-.143.31-.146.48-.48.48-.91 0-.41-.164-.726-.427-.863zM192.928 65.26v-5.714h3.46v.646h-2.57v1.763h2.49v.634h-2.49v2.027h2.603v.645l-3.492-.002zM197.174 65.26v-5.714h.89v5.07h2.526v.644h-3.416zM202.723 65.362c-1.424 0-2.252-1.063-2.252-2.945 0-1.91.872-2.955 2.42-2.955.464 0 1.005.084 1.776.316l-.142.626c-.647-.146-1.182-.225-1.547-.225-1.062 0-1.567.72-1.567 2.21 0 .762.146 1.385.41 1.764.25.342.565.495 1.07.495.378 0 .78-.077 1.095-.17v-1.92h.85v2.307c-.89.36-1.522.495-2.112.495zM205.77 65.26v-5.714h.892v5.714h-.892zM207.814 65.26v-5.714h3.46v.646h-2.566v1.763h2.492v.634h-2.492v2.027h2.602v.645l-3.496-.002zm.885-6.345c-.24 0-.44-.2-.44-.438 0-.24.198-.43.44-.43.236 0 .423.188.423.43 0 .24-.185.438-.424.438zm1.6 0c-.243 0-.44-.2-.44-.438 0-.24.196-.43.44-.43.237 0 .43.188.43.43 0 .24-.193.438-.43.438z"/><path fill="#B1B3B4" d="M77.872 38.966c-.11-9.824-8.19-17.816-18.016-17.815h-.003c-5.186 0-9.884 2.236-13.182 5.79 3.28.855 6.166 2.724 8.3 5.248 1.398-1.004 3.08-1.594 4.886-1.594 4.772 0 8.697 4.093 8.75 9.13v15.98h9.27V38.99l-.004-.024z"/><g fill="#B1B3B4"><path d="M83.476 71.025H87.5v.995h-2.996v2.31h2.728v.995h-2.728v2.603H87.5v.998h-4.024v-7.9zM93.695 78.926h-.938v-.916h-.02c-.29.655-.988 1.052-1.72 1.052-1.357 0-1.965-.927-1.965-2.48v-3.43h.967v2.988c0 1.347.268 2.004 1.11 2.06 1.1 0 1.597-.973 1.597-2.377v-2.67h.967v5.773zM95.34 73.153h.905v.895h.02c.258-.6.815-1.03 1.37-1.03.287 0 .434.032.64.082v.948c-.178-.08-.372-.104-.536-.104-.865 0-1.433.907-1.433 2.354v2.627h-.967v-5.772zM101.67 73.016c1.593 0 2.665 1.27 2.665 3.022 0 1.652-1.09 3.02-2.665 3.02-1.587 0-2.675-1.368-2.675-3.02 0-1.753 1.07-3.022 2.675-3.022zm0 5.184c1.132 0 1.637-1.13 1.637-2.16 0-1.097-.607-2.165-1.637-2.165-1.042 0-1.646 1.068-1.646 2.164 0 1.03.504 2.16 1.646 2.16zM105.24 77.795c.38.27.927.405 1.202.405.444 0 .99-.202.99-.826 0-1.05-2.274-.96-2.274-2.58 0-1.2.812-1.777 1.852-1.777.453 0 .823.1 1.204.23l-.08.928c-.22-.148-.793-.298-1.022-.298-.494 0-.926.23-.926.703 0 1.18 2.273.838 2.273 2.685 0 1.232-.897 1.8-1.832 1.8-.495 0-.997-.057-1.44-.316l.05-.955zM109.24 80.486c.126.046.292.093.453.093.866 0 1.153-1.313 1.153-1.43 0-.122-.124-.418-.185-.61l-1.78-5.387h1.06l1.41 4.773h.022l1.438-4.773h.98l-1.936 5.896c-.36 1.11-.74 2.388-2.017 2.388-.31 0-.483-.044-.66-.08l.064-.872zM114.388 77.795c.382.27.927.405 1.204.405.442 0 .987-.202.987-.826 0-1.05-2.276-.96-2.276-2.58 0-1.2.813-1.777 1.854-1.777.45 0 .82.1 1.202.23l-.082.928c-.216-.148-.792-.298-1.017-.298-.495 0-.928.23-.928.703 0 1.18 2.274.838 2.274 2.685 0 1.232-.894 1.8-1.833 1.8-.492 0-.997-.057-1.438-.316l.053-.955zM121.568 74.012h-1.387v3.157c0 .67.37 1.03.814 1.03.298 0 .513-.1.657-.203v.904c-.216.068-.515.16-.822.16-.997 0-1.614-.522-1.614-1.676V74.01h-1.187v-.857h1.187v-1.335l.967-.34v1.675h1.388v.86zM126.807 78.69c-.37.145-.79.37-1.658.37-1.86 0-2.714-1.245-2.714-3.123 0-1.71.976-2.922 2.455-2.922 1.753 0 2.317 1.403 2.317 3.26h-3.744c0 1.145.81 1.925 1.727 1.925.64 0 1.38-.36 1.617-.576v1.065zm-.63-3.208c0-.88-.47-1.607-1.304-1.607-.95 0-1.338.86-1.41 1.607h2.715zM132.527 78.69c-.37.145-.79.37-1.657.37-1.86 0-2.716-1.245-2.716-3.123 0-1.71.98-2.922 2.462-2.922 1.747 0 2.315 1.403 2.315 3.26h-3.747c0 1.145.814 1.925 1.73 1.925.636 0 1.378-.36 1.613-.576v1.065zm-.625-3.208c0-.88-.475-1.607-1.31-1.607-.944 0-1.34.86-1.41 1.607h2.72zM134.215 73.153h.904v.837h.02c.37-.667.896-.975 1.668-.975.607 0 1.215.34 1.49 1.12.36-.824 1.154-1.12 1.627-1.12 1.338 0 1.822.952 1.822 2.207v3.702h-.97v-3.442c0-.713-.153-1.607-.938-1.607-.985 0-1.378 1.068-1.378 2.144v2.906h-.967v-3.442c0-.713-.154-1.607-.937-1.607-.988 0-1.38 1.068-1.38 2.144v2.908h-.968v-5.773h.005z"/></g></g><path fill="none" d="M0 0h239.653v98.224H0z"/></svg>